Patient4_TMGait_0pt8_01_left_35_EMG.mot
version=1
nRows=40
nColumns=33
inDegrees=no
endheader
time	1LAddLong	2LGlutMax	3LGlutMed	4LIliopsoas	5LSemiMemb	6LBicFemLong	7LRecFem	8LVastMed	9LVastLat	10LGasMed	11LTibAnt	12lTibPost	13LPeroneusLong	14LSol	15LExtDigLong	16LFlexDigLong	17RAddLong	18RGlutMax	19RGlutMed	20RIliopsoas	21RSemiMemb	22RBicFemLong	23RRecFem	24RVastMed	25RVastLat	26RGasMed	27RTibAnt	28RTibPost	29RPeroneusLong	30RSol	31RExtDigLong	32RFlexDigLong
38.61	-0.019684	0.28931	-0.056	0.002594	-0.001373	0.041809	-0.027466	0.016022	-0.38498	-0.023499	-0.027466	-0.00351	0.015106	-0.010071	-0.10666	-0.010681	-0.048065	0.3595	-0.54672	-0.25559	-0.031586	0.021973	-0.8931	0.39841	0.37018	-0.035095	0.75012	-0.009613	-0.51453	-0.035858	-0.000305	-0.012817
38.611	-0.023346	0.36606	-0.074615	0.005646	0.001221	0.019226	-0.11978	0.017548	-0.37827	-0.06073	-0.29373	0.002289	0.026398	0.028534	-0.33279	-0.025177	-0.010681	0.36957	-0.4567	-0.4306	-0.038147	-0.01358	-0.12421	0.28061	-0.075989	-0.02533	1.0562	0.048218	-0.22583	0.057526	-0.005493	-0.013275
38.612	0.00473	0.40894	-0.080261	0.005035	-0.005798	0.031738	-0.15854	0.00885	-0.36072	-0.10025	-0.45151	-0.002899	0.054932	0.02182	-0.23605	-0.025177	0.030518	0.39154	-0.33859	-0.31799	-0.057831	-0.052338	0.13321	-0.18234	-0.30548	-0.015717	0.34576	0.005035	0.53024	-0.1181	-0.000458	-0.002289
38.613	-0.005951	0.47424	-0.10208	-0.007324	-0.01358	0.037384	-0.16617	0.009003	-0.35736	-0.10422	-0.28168	-0.009766	-0.024567	-0.032043	-0.19684	-0.025177	0.000153	0.30701	-0.32913	-0.028381	-0.043488	-0.014343	0.009613	-0.094147	0.18677	-0.007782	-1.297	-0.014343	0.82871	-0.20676	0	-0.008392
38.614	-0.003662	0.60104	-0.065308	0.001831	-0.005035	0.020142	-0.12909	0.017853	-0.34714	-0.15778	-0.056915	-0.001831	-0.053101	-0.043945	-0.036163	-0.013123	-0.011139	0.29388	-0.15701	0.23956	-0.05127	-0.027161	-0.02533	-0.11108	0.61951	-0.008545	-1.2201	-0.027008	0.006561	-0.12741	-0.000763	-0.003967
38.615	-0.005341	0.67047	-0.041962	-0.002136	0.001068	0.010376	-0.093231	0.008545	-0.37064	-0.15472	0.13443	0.008698	-0.030212	-0.016937	0.31708	-0.002594	0.003052	0.26733	0.068512	0.29968	-0.04837	-0.026245	0.15854	-0.26871	0.6134	-0.001373	-0.83008	-0.037384	-0.71335	-0.12268	-0.003662	-0.004883
38.616	0.000458	0.7901	-0.054932	-0.00061	-0.000458	0.019226	-0.12039	0.010376	-0.38437	-0.10864	0.13306	-0.001068	0.060425	0.025635	0.21484	-0.001831	-0.007782	0.29938	0.30899	0.25665	-0.038605	0.009155	0.084686	-0.25925	0.52277	0.00473	-0.75531	-0.027771	-0.011292	-0.099945	0.002136	-0.002899
38.617	-0.019836	0.91431	-0.058899	0.023193	-0.004425	0.010071	-0.11353	0.007019	-0.40192	-0.044403	-0.11383	-0.002899	0.1593	0.031891	-0.002899	0.003967	-0.016785	0.35431	0.15976	0.2153	-0.027466	0.031281	0.11459	-0.093842	0.42984	-0.005646	-0.25681	-0.014038	0.65277	-0.23178	0.000916	-0.000153
38.618	0.023956	0.94345	-0.065765	0.042725	-0.003357	-0.007629	-0.065765	0.001526	-0.41748	0.047913	-0.19363	-0.002899	0.20432	0.004578	-0.15808	-0.00885	-0.018158	0.32959	-0.29282	0.16174	-0.020752	0.034485	0.35233	-0.016327	0.30762	0.001526	0.097046	-0.003204	-0.10407	-0.23407	-0.002441	-0.002136
38.619	-0.010986	0.93887	-0.031433	0.001678	0.001831	-0.008392	-0.06958	0.004578	-0.44968	0.077209	-0.044708	-0.001526	0.14114	-0.040894	-0.16571	-0.003357	-0.027313	0.39322	-0.62531	0.01236	-0.0177	0.031128	0.014648	0.002747	0.17746	0.008087	0.073853	-0.003052	-0.72189	-0.19699	0.003357	-0.001068
38.62	-0.008698	0.93979	-0.041809	-0.009308	-0.002899	0.001831	-0.068817	0.005798	-0.48584	0.07309	-0.03067	0.001068	0.081329	-0.1239	-0.040283	0.005188	-0.035248	0.44632	-0.26291	-0.057068	-0.011139	0.007172	-0.21393	0.063934	-0.25574	0.015564	0.1561	-0.00946	-0.42877	-0.28183	-0.004272	0.009308
38.621	-0.00412	0.95032	-0.083008	0.000153	-0.005493	-0.012054	-0.078278	0.004272	-0.51361	0.049133	-0.14481	-0.001526	0.04776	-0.16266	-0.006256	0.003815	-0.022125	0.42084	-0.13199	-0.091705	-0.020447	0.007477	-0.53406	0.020447	-0.45197	0.001526	-0.68863	-0.00824	-0.78354	-0.14969	-0.001831	0.002289
38.622	0	0.90988	-0.11841	-0.008087	0.004883	-0.011444	-0.068512	0.006561	-0.55328	0.029602	-0.18341	-0.005188	0.020905	-0.13184	-0.00946	-0.001831	0.015869	0.28198	-0.3688	-0.14145	-0.037842	-0.016327	-0.50217	0.088806	-0.35461	-0.006561	-0.78598	-0.003967	-0.37872	-0.096893	-0.001678	-0.004883
38.623	-0.001068	0.9343	-0.095978	0.006409	-0.003052	-0.000153	-0.06012	0.008087	-0.62668	-0.006256	-0.09903	-0.00473	0.075684	-0.079803	-0.010986	0.002899	0.0177	0.22903	-0.036621	-0.31723	-0.043335	-0.019531	-0.39841	-0.007782	-0.13962	-0.003967	-0.16159	-0.010834	0.63843	-0.14801	0.002747	-0.001831
38.624	-0.000458	0.88608	-0.093231	0.016022	-0.00351	-0.02182	-0.061188	-0.002136	-0.69015	-0.019379	0.097961	-0.003967	0.11322	-0.017242	0.001068	-0.00412	-0.000916	0.080719	0.09903	-0.31128	-0.032349	-0.00412	-0.29526	-0.12146	-0.10376	-0.001221	0.001678	-0.010071	1.75	-0.041199	-0.003662	-0.011292
38.625	0.002136	0.81192	-0.0737	0.039825	0.010834	-0.018005	-0.055389	0.002747	-0.79941	-0.027161	0.094604	0.003967	0.014648	-0.026245	0.043488	0.000763	-0.009918	0.005035	-0.34485	-0.13428	-0.032196	-0.019073	-0.10117	-0.18692	-0.15121	0.000153	0.084991	-0.016174	-0.2562	-0.061951	0.000458	-0.007629
38.626	0.010834	0.75455	-0.095215	0.030365	0.007782	-0.009003	-0.063477	0.00351	-0.82565	-0.045319	0.024109	-0.003357	-0.042572	-0.095215	0.08316	-0.016632	-0.01236	0.063171	-0.74112	-0.13534	-0.011444	0.008698	-0.65979	-0.25085	-0.18555	0.000458	0.5722	-0.00885	-0.37109	-0.0354	-0.000916	-0.002441
38.627	0.004272	0.71304	-0.1062	-0.002747	0.001831	-0.02594	-0.056915	0.006561	-0.68817	-0.046997	0.018005	-0.007782	0.00946	-0.13611	0.47058	-0.024872	-0.011902	0.068359	-1.142	-0.09079	-0.027771	-0.005798	-0.83878	-0.30228	0.063782	0.005798	0.32425	-0.007172	-0.21072	-0.001068	-0.001831	-0.002899
38.628	0.005798	0.65094	-0.1001	-0.00473	-0.014038	-0.029449	-0.06546	0.002747	-0.58807	-0.032349	0.029602	-0.002594	0.11948	-0.13458	0.094604	-0.00473	-0.014343	0.10269	-0.87967	0.034943	-0.009613	0.018005	-0.40527	0.050049	0.084534	-0.004578	-0.14404	-0.00885	0.13214	0.23773	-0.00061	-0.019073
38.629	0.009155	0.63202	-0.10544	0.00061	-0.010071	0.018158	-0.075073	0.005951	-0.45593	-0.048523	0.010986	-0.004272	0.096588	-0.082855	-0.041962	-0.010071	-0.019684	0.087891	-0.18768	0.1593	-0.005493	0.015411	-0.32913	0.28854	-0.13641	-0.020599	-0.26504	-0.007629	0.15091	0.39368	0.000153	-0.010376
38.63	0.002441	0.59952	-0.12695	0.017548	-0.010223	0.023956	-0.059967	0.005341	-0.32593	-0.053711	0.066376	-0.009003	0.051575	-0.071411	-0.15762	-0.002747	-0.014191	0.12833	0.23514	0.23438	-0.014648	-0.016479	-0.73273	0.71198	0.3862	-0.015564	-0.30884	-0.008698	-0.34195	0.42038	-0.003967	-0.014648
38.631	0.007477	0.57693	-0.12558	0.003967	0.002441	0.002899	-0.040741	0.002594	-0.22598	-0.031738	0.037537	0.001068	0.020599	-0.063171	-0.061951	-0.000763	0.001221	0.18692	0.62714	0.2327	-0.002747	0.006256	-0.8548	0.78598	0.60791	-0.007935	-0.1709	0.004578	-0.84015	0.26093	-0.006714	-0.011292
38.632	0.001526	0.54504	-0.10071	0.010834	-0.008087	0.003204	-0.04364	0.009613	-0.13641	-0.037689	0.025787	-0.00412	-0.039368	-0.059509	-0.019073	-0.007629	-0.002136	0.22675	0.60837	0.23102	-0.010223	-0.014954	-0.81467	0.44937	0.39475	-0.005188	0.11307	-0.00412	0.31799	0.06485	-0.003662	-0.016632
38.633	0.004425	0.51132	-0.09079	0.021362	0.004272	-0.013123	-0.054169	0.001831	-0.048218	-0.003815	0.025177	0.008392	-0.06012	-0.083313	-0.006256	-0.010834	0.027924	0.2565	0.401	0.20035	-0.042877	-0.069122	-0.2655	-0.036774	0.14542	-0.010834	-0.028076	-0.002441	0.74417	-0.025024	-0.001831	-0.005646
38.634	0.005798	0.50278	-0.13718	0.029449	0.017548	-0.011597	-0.054626	0.002747	0.031738	0.001678	0.029297	-0.009918	0.001373	-0.046844	-0.008545	-0.008087	0.036163	0.24139	0.10284	0.21927	-0.050507	-0.073547	0.049133	-0.28656	0.039978	-0.007172	-0.11612	-0.001221	0.36453	-0.18936	0.000458	-0.017853
38.635	0.010376	0.47211	-0.14664	0.029297	0.008392	-0.001678	-0.070038	-0.000763	0.089874	-0.006104	0.030212	0.001678	-0.10346	-0.009003	0.01297	-0.005798	0.009308	0.20935	0.046539	0.13626	-0.034027	-0.04776	0.023346	-0.26627	-0.2887	-0.003052	0.041504	0.001831	0.20859	-0.26871	-0.000763	-0.006256
38.636	0.02533	0.40298	-0.15396	0.004272	-0.005951	-0.035553	-0.07019	0.009155	0.15656	-0.011139	0.02594	-0.005341	-0.072021	-0.028381	0.030212	0.006256	0.001831	0.25131	0.027924	0.007935	-0.024109	-0.013733	0.17914	-0.004425	-0.49713	-0.002899	0.11597	-0.001373	0.35187	-0.088501	0.005341	-0.007019
38.637	0.016632	0.38238	-0.085754	-0.001678	-0.001678	-0.065155	-0.074921	0.006256	0.18982	-0.04364	0.020599	-0.019836	-0.041962	-0.025482	0.048218	0.002441	-0.007782	0.34836	-0.069885	-0.07782	-0.011444	-0.008087	0.26627	0.11673	-0.16678	-0.012512	0.22705	0.000916	-0.38055	0.11704	-0.001373	-0.006866
38.638	0.012054	0.35294	-0.095673	0.00061	0.012512	-0.084839	-0.073242	0.00885	0.2298	-0.065613	0.02594	0	-0.012512	-0.031128	0.076294	-0.005188	0.004578	0.38376	-0.059204	-0.13763	-0.020905	-0.023804	0.28595	0.1535	0.12985	-0.012817	0.29785	-0.00351	-0.64011	0.080414	-0.000305	-0.007782
38.639	0.007935	0.30045	-0.074615	0.007935	-0.006714	-0.1059	-0.048676	0.005798	0.26337	-0.059204	0.016937	-0.007324	0.029449	-0.058899	0.059814	0.004883	-0.003357	0.33524	-0.31616	-0.19821	-0.029602	-0.011902	0.25818	0.03006	0.31174	-0.00824	0.20172	-0.005493	-0.18051	0.11612	-0.001221	-0.005798
38.64	0.014191	0.27893	-0.02655	0.005035	0.000153	-0.10117	-0.06485	-0.002441	0.27802	-0.043793	0.007477	-0.003052	0.061951	-0.082855	0.03952	-0.000305	-0.001678	0.3122	-0.31586	-0.1001	-0.015869	-0.006561	0.071106	0.048981	0.42328	-0.00412	-0.042877	-0.003815	-0.11261	0.095367	-0.002899	-0.007782
38.641	0.015259	0.23178	-0.047913	0.00473	0.00473	-0.078278	-0.071564	0.001831	0.289	-0.027924	0.013885	-0.007782	0.079498	-0.063934	0.010071	-0.005798	-0.002136	0.30609	-0.37354	-0.040741	-0.023041	-0.010223	0.018158	-0.15656	0.46524	0.002594	-0.000153	-0.00824	-0.22995	-0.013428	-0.003052	-0.0177
38.642	0.011292	0.1918	-0.04364	-0.002136	0.004425	-0.087585	-0.065155	0.00946	0.29877	-0.014038	0.021515	-0.000763	0.040894	-0.057678	-0.022888	-0.007324	0.002441	0.33447	0.63599	0.036926	-0.055695	-0.00885	-0.06546	-0.12802	0.29846	-0.000916	0.079193	0.00473	-0.093079	-0.12848	0.005646	-0.016327
38.643	0.008392	0.12894	-0.047455	0.013275	-0.018005	-0.091248	-0.041809	-0.000916	0.31494	-0.006714	0.02594	-0.001221	-0.007629	-0.060577	-0.035858	0.010834	-0.009308	0.30884	0.52673	0.090027	-0.093689	0.007324	-0.29221	-0.11963	-0.068054	-0.00351	0.11276	-0.001984	-0.12756	-0.1387	0.009308	-0.015869
38.644	0.018158	0.085907	-0.065155	0.015259	-0.044098	-0.086517	-0.050507	0.00061	0.31113	0.000305	0.021515	-0.005646	-0.007324	-0.057831	-0.026855	0.008392	-0.010071	0.27588	0.29724	0.10254	-0.08194	0.025177	-0.30777	-0.006866	-0.44693	-0.017395	0.11429	0.006104	0.068512	-0.063324	-0.007477	-0.020599
38.645	0.011292	0.067749	-0.046844	-0.003204	-0.024414	-0.093384	-0.05127	0.00473	0.3418	-0.003052	0.018768	-0.006409	0.007629	-0.02533	-0.016174	0.001068	-0.022888	0.30594	0.26596	0.048981	0.036163	0.023956	-0.13458	0.037231	-0.22446	-0.025024	0.11368	0.003662	-0.033112	0.017395	-0.004272	-0.015106
38.646	0.015869	0.045013	-0.072327	0.003662	0.000305	-0.074158	-0.041046	0.012512	0.345	-0.031738	0.016174	-0.001984	0.018463	-0.029602	0.005188	-0.017853	-0.014343	0.28351	0.51849	-0.019379	0.071411	-0.024414	-0.052643	-0.007477	-0.10346	-0.002899	0.089111	0.007629	0.007019	0.044708	-0.007019	-0.005341
38.647	0.018768	-0.00061	-0.036469	0.009308	-0.000305	-0.074005	-0.05661	0.005188	0.35553	-0.038147	0.023041	-0.001831	0.023651	-0.062256	0.014191	-0.030212	-0.003967	0.31372	0.12604	-0.054321	0.021057	-0.014648	-0.003204	0.007782	-0.047913	-0.006561	0.044708	-0.001373	0.058746	-0.058289	0.000305	-0.017548
38.648	0.023804	-0.068207	0.016022	0.011444	0.020599	-0.076904	-0.049438	0.004578	0.35294	-0.048676	0.064087	-0.006866	0.026703	-0.06897	0.13916	-0.00061	-0.008545	0.34683	-0.13351	-0.005493	-0.01358	-0.037842	-0.059204	-0.17288	-0.035248	-0.007172	0.07782	-0.001221	0.020447	-0.099335	0.001678	-0.012512
38.649	0.023651	-0.11978	-0.027466	0.006866	0.051117	-0.033875	-0.057373	0.004883	0.34592	-0.049438	0.11688	0.004578	0.010223	-0.017548	0.12604	0.018616	-0.015259	0.34454	-0.31525	-0.012207	0.015564	-0.012665	-0.089264	-0.25742	-0.087585	-0.011597	0.083771	-0.001221	0.037537	-0.06485	-0.00351	-0.00824
